<mxfile host="Electron" agent="Mozilla/5.0 (Windows NT 10.0; Win64; x64) AppleWebKit/537.36 (KHTML, like Gecko) draw.io/26.0.4 Chrome/128.0.6613.186 Electron/32.2.5 Safari/537.36" version="26.0.4">
  <diagram name="Page-1" id="94eI5dp1owvqRH7AI1AB">
    <mxGraphModel dx="717" dy="345" grid="1" gridSize="10" guides="1" tooltips="1" connect="1" arrows="1" fold="1" page="1" pageScale="1" pageWidth="1654" pageHeight="1169" math="0" shadow="0">
      <root>
        <mxCell id="0" />
        <mxCell id="1" parent="0" />
        <mxCell id="nAjgFpennN1XI26nj7D7-1" value="" style="ellipse;whiteSpace=wrap;html=1;aspect=fixed;" vertex="1" parent="1">
          <mxGeometry x="330" y="130" width="80" height="80" as="geometry" />
        </mxCell>
        <mxCell id="nAjgFpennN1XI26nj7D7-3" value="Left_Shift 1 bit" style="text;html=1;align=center;verticalAlign=middle;whiteSpace=wrap;rounded=0;" vertex="1" parent="1">
          <mxGeometry x="340" y="155" width="60" height="30" as="geometry" />
        </mxCell>
        <mxCell id="nAjgFpennN1XI26nj7D7-4" value="" style="endArrow=classic;html=1;rounded=0;entryX=0;entryY=0;entryDx=0;entryDy=0;" edge="1" parent="1">
          <mxGeometry width="50" height="50" relative="1" as="geometry">
            <mxPoint x="218.28" y="142" as="sourcePoint" />
            <mxPoint x="339.9957287525349" y="141.71572875253497" as="targetPoint" />
          </mxGeometry>
        </mxCell>
        <mxCell id="nAjgFpennN1XI26nj7D7-5" value="" style="endArrow=classic;html=1;rounded=0;" edge="1" parent="1">
          <mxGeometry width="50" height="50" relative="1" as="geometry">
            <mxPoint x="220" y="200" as="sourcePoint" />
            <mxPoint x="340" y="200" as="targetPoint" />
          </mxGeometry>
        </mxCell>
        <mxCell id="nAjgFpennN1XI26nj7D7-6" value="c_in [27:0]" style="text;html=1;align=center;verticalAlign=middle;whiteSpace=wrap;rounded=0;" vertex="1" parent="1">
          <mxGeometry x="228.28" y="110" width="60" height="30" as="geometry" />
        </mxCell>
        <mxCell id="nAjgFpennN1XI26nj7D7-7" value="d_in [27:0]" style="text;html=1;align=center;verticalAlign=middle;whiteSpace=wrap;rounded=0;" vertex="1" parent="1">
          <mxGeometry x="230" y="170" width="60" height="30" as="geometry" />
        </mxCell>
        <mxCell id="nAjgFpennN1XI26nj7D7-8" value="" style="endArrow=classic;html=1;rounded=0;" edge="1" parent="1">
          <mxGeometry width="50" height="50" relative="1" as="geometry">
            <mxPoint x="400" y="142" as="sourcePoint" />
            <mxPoint x="610" y="142" as="targetPoint" />
          </mxGeometry>
        </mxCell>
        <mxCell id="nAjgFpennN1XI26nj7D7-9" value="c_shift [27:0] = {c_in[26:0], c_in[27]}" style="text;html=1;align=center;verticalAlign=middle;whiteSpace=wrap;rounded=0;" vertex="1" parent="1">
          <mxGeometry x="390" y="110" width="210" height="30" as="geometry" />
        </mxCell>
        <mxCell id="nAjgFpennN1XI26nj7D7-10" value="" style="endArrow=classic;html=1;rounded=0;" edge="1" parent="1">
          <mxGeometry width="50" height="50" relative="1" as="geometry">
            <mxPoint x="400" y="199.73" as="sourcePoint" />
            <mxPoint x="610" y="200" as="targetPoint" />
          </mxGeometry>
        </mxCell>
        <mxCell id="nAjgFpennN1XI26nj7D7-12" value="d_shift [27:0] = {d_in[26:0], d_in[27]}" style="text;html=1;align=center;verticalAlign=middle;whiteSpace=wrap;rounded=0;" vertex="1" parent="1">
          <mxGeometry x="400" y="200" width="210" height="30" as="geometry" />
        </mxCell>
        <mxCell id="nAjgFpennN1XI26nj7D7-13" value="" style="ellipse;whiteSpace=wrap;html=1;aspect=fixed;" vertex="1" parent="1">
          <mxGeometry x="330" y="290" width="80" height="80" as="geometry" />
        </mxCell>
        <mxCell id="nAjgFpennN1XI26nj7D7-14" value="Left_Shift 2 bits" style="text;html=1;align=center;verticalAlign=middle;whiteSpace=wrap;rounded=0;" vertex="1" parent="1">
          <mxGeometry x="340" y="315" width="60" height="30" as="geometry" />
        </mxCell>
        <mxCell id="nAjgFpennN1XI26nj7D7-15" value="" style="endArrow=classic;html=1;rounded=0;entryX=0;entryY=0;entryDx=0;entryDy=0;" edge="1" parent="1">
          <mxGeometry width="50" height="50" relative="1" as="geometry">
            <mxPoint x="218.28" y="302" as="sourcePoint" />
            <mxPoint x="339.9957287525349" y="301.715728752535" as="targetPoint" />
          </mxGeometry>
        </mxCell>
        <mxCell id="nAjgFpennN1XI26nj7D7-16" value="" style="endArrow=classic;html=1;rounded=0;" edge="1" parent="1">
          <mxGeometry width="50" height="50" relative="1" as="geometry">
            <mxPoint x="220" y="360" as="sourcePoint" />
            <mxPoint x="340" y="360" as="targetPoint" />
          </mxGeometry>
        </mxCell>
        <mxCell id="nAjgFpennN1XI26nj7D7-17" value="c_in [27:0]" style="text;html=1;align=center;verticalAlign=middle;whiteSpace=wrap;rounded=0;" vertex="1" parent="1">
          <mxGeometry x="228.28" y="270" width="60" height="30" as="geometry" />
        </mxCell>
        <mxCell id="nAjgFpennN1XI26nj7D7-18" value="d_in [27:0]" style="text;html=1;align=center;verticalAlign=middle;whiteSpace=wrap;rounded=0;" vertex="1" parent="1">
          <mxGeometry x="230" y="330" width="60" height="30" as="geometry" />
        </mxCell>
        <mxCell id="nAjgFpennN1XI26nj7D7-19" value="" style="endArrow=classic;html=1;rounded=0;" edge="1" parent="1">
          <mxGeometry width="50" height="50" relative="1" as="geometry">
            <mxPoint x="400" y="302" as="sourcePoint" />
            <mxPoint x="610" y="302" as="targetPoint" />
          </mxGeometry>
        </mxCell>
        <mxCell id="nAjgFpennN1XI26nj7D7-20" value="c_shift [27:0] = {c_in[25:0], c_in[27:26]}" style="text;html=1;align=center;verticalAlign=middle;whiteSpace=wrap;rounded=0;" vertex="1" parent="1">
          <mxGeometry x="390" y="270" width="210" height="30" as="geometry" />
        </mxCell>
        <mxCell id="nAjgFpennN1XI26nj7D7-21" value="" style="endArrow=classic;html=1;rounded=0;" edge="1" parent="1">
          <mxGeometry width="50" height="50" relative="1" as="geometry">
            <mxPoint x="400" y="359.73" as="sourcePoint" />
            <mxPoint x="610" y="360" as="targetPoint" />
          </mxGeometry>
        </mxCell>
        <mxCell id="nAjgFpennN1XI26nj7D7-22" value="d_shift [27:0] = {d_in[25:0], d_in[27:26]}" style="text;html=1;align=center;verticalAlign=middle;whiteSpace=wrap;rounded=0;" vertex="1" parent="1">
          <mxGeometry x="400" y="360" width="220" height="30" as="geometry" />
        </mxCell>
      </root>
    </mxGraphModel>
  </diagram>
</mxfile>
